<svg xmlns="http://www.w3.org/2000/svg" viewBox="0 0 199.64 50.08"><defs><style>.cls-1{fill:#231f20;}</style></defs><g id="Layer_2" data-name="Layer 2"><g id="Layer_1-2" data-name="Layer 1"><path class="cls-1" d="M18.45,8.73c8.73,0,15.31,4.91,17.4,12.85H26a8.1,8.1,0,0,0-7.68-4.7c-5.49,0-9.26,4.08-9.26,10.56S12.86,38,18.35,38A8.09,8.09,0,0,0,26,33.29h9.82c-2.09,8-8.67,12.81-17.4,12.81C7.63,46.1,0,38.41,0,27.44S7.63,8.73,18.45,8.73Z"/><path class="cls-1" d="M74.33,27.44c0,11-7.63,18.66-18.45,18.66-8.73,0-15.31-4.86-17.4-12.81H48.3A8.09,8.09,0,0,0,56,38c5.48,0,9.25-4.08,9.25-10.56S61.47,16.88,56,16.88a8.1,8.1,0,0,0-7.69,4.7H38.48c2.09-7.94,8.67-12.85,17.4-12.85C66.7,8.73,74.33,16.46,74.33,27.44Z"/><path class="cls-1" d="M90.53,1.09c4.86,0,8.72,2.45,10.39,6.79h-3.5a7.05,7.05,0,0,0-6.89-4.21c-4.69,0-8.2,3.41-8.2,8.91s3.51,8.87,8.2,8.87a7.07,7.07,0,0,0,6.89-4.18h3.5C99.25,21.58,95.39,24,90.53,24A11,11,0,0,1,79.34,12.58C79.34,5.85,84.26,1.09,90.53,1.09Z"/><path class="cls-1" d="M113,24.09c-5,0-8.78-3.54-8.78-9.13a8.62,8.62,0,0,1,8.91-9.07c5,0,8.91,3.5,8.91,9.07A8.74,8.74,0,0,1,113,24.09Zm0-2.57c3.05,0,6-2.09,6-6.56s-2.92-6.53-6-6.53-5.88,2.09-5.88,6.53S109.9,21.52,113,21.52Z"/><path class="cls-1" d="M133.55,24.09c-5,0-8.78-3.54-8.78-9.13s3.92-9.07,8.9-9.07,8.91,3.5,8.91,9.07A8.74,8.74,0,0,1,133.55,24.09Zm0-2.57c3,0,6-2.09,6-6.56s-2.92-6.53-6-6.53-5.88,2.09-5.88,6.53S130.49,21.52,133.55,21.52Z"/><path class="cls-1" d="M146.45,0h2.93V23.8h-2.93Z"/><path class="cls-1" d="M101.88,38.57A11,11,0,0,1,90.68,50c-4.85,0-8.71-2.41-10.39-6.72H83.8a7.07,7.07,0,0,0,6.88,4.18c4.7,0,8.21-3.41,8.21-8.87s-3.51-8.91-8.21-8.91a7,7,0,0,0-6.88,4.21H80.29c1.68-4.34,5.54-6.79,10.39-6.79C97,27.08,101.88,31.84,101.88,38.57Z"/><path class="cls-1" d="M106.22,26h2.93v23.8h-2.93Z"/><path class="cls-1" d="M121.82,50.08c-5,0-8.78-3.54-8.78-9.13A8.62,8.62,0,0,1,122,31.88c5,0,8.91,3.5,8.91,9.07A8.74,8.74,0,0,1,121.82,50.08Zm0-2.57c3.06,0,6.05-2.09,6.05-6.56s-2.93-6.53-6-6.53S116,36.51,116,41,118.77,47.51,121.82,47.51Z"/><path class="cls-1" d="M135.37,34.58h-2.28V32.16h2.28V27.73h2.93v4.43h4.6v2.42h-4.6V45c0,1.73.64,2.34,2.44,2.34h2.16v2.48h-2.64c-3.12,0-4.89-1.29-4.89-4.82Z"/><path class="cls-1" d="M146.44,26h2.92v8.72a6.63,6.63,0,0,1,5.82-2.87c3.93,0,7,2.51,7,7.56V49.79h-2.9v-10c0-3.6-2-5.44-4.92-5.44s-5,1.87-5,5.66v9.75h-2.92Z"/><path class="cls-1" d="M174.65,50.08c-5,0-8.72-3.54-8.72-9.13s3.57-9.07,8.72-9.07a8.08,8.08,0,0,1,8.46,8.42,14.53,14.53,0,0,1-.1,1.77H168.92a5.55,5.55,0,0,0,5.73,5.53,4.84,4.84,0,0,0,4.95-3.24h3.15C181.85,47.57,179,50.08,174.65,50.08ZM169,39.69h11.13c0-3.44-2.54-5.34-5.56-5.34A5.47,5.47,0,0,0,169,39.69Z"/><path class="cls-1" d="M193.21,50.08c-4.12,0-7-2.25-7.2-5.47h3c.16,1.71,1.67,3,4.15,3,2.31,0,3.6-1.15,3.6-2.6,0-3.93-10.42-1.64-10.42-8.2,0-2.71,2.54-4.92,6.46-4.92s6.47,2.09,6.66,5.53h-2.92c-.13-1.77-1.48-3.06-3.83-3.06-2.16,0-3.44,1-3.44,2.45,0,4.18,10.23,1.89,10.35,8.2C199.64,47.89,197.1,50.08,193.21,50.08Z"/></g></g></svg>